<svg width="40" height="40" viewBox="0 0 40 40" fill="none" xmlns="http://www.w3.org/2000/svg">
<circle cx="20" cy="20" r="20" fill="#F2F2F2"/>
<path d="M28.3332 14.8325C27.7068 15.1043 27.0444 15.2839 26.3665 15.3659C27.0816 14.9386 27.6176 14.2665 27.8748 13.4742C27.2028 13.8743 26.4671 14.1561 25.6998 14.3075C25.187 13.7513 24.504 13.3811 23.758 13.2549C23.012 13.1287 22.2453 13.2537 21.578 13.6102C20.9107 13.9667 20.3806 14.5346 20.0709 15.2249C19.7611 15.9151 19.6892 16.6887 19.8665 17.4242C18.5077 17.3555 17.1785 17.0017 15.9654 16.3857C14.7522 15.7698 13.6822 14.9056 12.8248 13.8492C12.5241 14.3743 12.3661 14.9691 12.3665 15.5742C12.3654 16.1362 12.5034 16.6897 12.768 17.1855C13.0326 17.6813 13.4157 18.104 13.8832 18.4159C13.3398 18.4011 12.8081 18.2553 12.3332 17.9909V18.0325C12.3372 18.8199 12.6132 19.5818 13.1143 20.1892C13.6154 20.7966 14.3109 21.2122 15.0832 21.3659C14.7859 21.4563 14.4772 21.504 14.1665 21.5075C13.9514 21.505 13.7369 21.4855 13.5248 21.4492C13.7448 22.1265 14.1704 22.7185 14.7424 23.1427C15.3144 23.5668 16.0045 23.8022 16.7165 23.8159C15.5142 24.7619 14.0297 25.2782 12.4998 25.2825C12.2213 25.2834 11.943 25.2667 11.6665 25.2325C13.2285 26.2411 15.0488 26.7765 16.9082 26.7742C18.1912 26.7875 19.4641 26.545 20.6524 26.0609C21.8408 25.5768 22.9207 24.8608 23.8292 23.9546C24.7377 23.0485 25.4565 21.9704 25.9436 20.7833C26.4308 19.5962 26.6765 18.324 26.6665 17.0409C26.6665 16.8992 26.6665 16.7492 26.6665 16.5992C27.3204 16.1115 27.8844 15.5137 28.3332 14.8325Z" fill="black"/>
</svg>
