<svg width="40" height="41" viewBox="0 0 40 41" fill="none" xmlns="http://www.w3.org/2000/svg">
<g filter="url(#filter0_d_6037_25270)">
<path d="M2.5 14.9444C2.5 10.5885 2.5 8.4105 3.34773 6.74674C4.09341 5.28326 5.28326 4.09341 6.74674 3.34773C8.4105 2.5 10.5885 2.5 14.9444 2.5H25.0556C29.4115 2.5 31.5895 2.5 33.2533 3.34773C34.7167 4.09341 35.9066 5.28326 36.6523 6.74674C37.5 8.4105 37.5 10.5885 37.5 14.9444V25.0556C37.5 29.4115 37.5 31.5895 36.6523 33.2533C35.9066 34.7167 34.7167 35.9066 33.2533 36.6523C31.5895 37.5 29.4115 37.5 25.0556 37.5H14.9444C10.5885 37.5 8.4105 37.5 6.74674 36.6523C5.28326 35.9066 4.09341 34.7167 3.34773 33.2533C2.5 31.5895 2.5 29.4115 2.5 25.0556V14.9444Z" fill="white"/>
<path d="M20.0024 15.5624L15.6763 7.92774C15.8199 7.78149 15.9852 7.68557 16.1504 7.62109C14.8747 8.04096 14.2893 9.47354 14.2893 9.47354L6.38619 23.4172C6.27499 23.8544 6.2441 24.2491 6.258 24.5966H14.884L20.0024 15.5624Z" fill="#34A853"/>
<path d="M20.0024 15.5624L25.1209 24.5966H33.7468C33.7607 24.2491 33.7298 23.8544 33.6186 23.4172L25.7155 9.47354C25.7155 9.47354 25.1286 8.04096 23.8544 7.62109C24.0181 7.68557 24.1849 7.78149 24.3285 7.92774L20.0024 15.5624Z" fill="#FBBC05"/>
<path d="M20.0024 15.5623L24.3285 7.92768C24.1848 7.78143 24.018 7.68551 23.8543 7.62103C23.6659 7.55971 23.4636 7.51882 23.2443 7.50781H23.0157H16.9891H16.7605C16.5427 7.51725 16.3389 7.55813 16.1504 7.62103C15.9867 7.68551 15.8199 7.78143 15.6763 7.92768L20.0024 15.5623Z" fill="#188038"/>
<path d="M14.8858 24.5977L10.6091 32.1458C10.6091 32.1458 10.467 32.0766 10.2739 31.9335C10.8809 32.4006 11.4709 32.4996 11.4709 32.4996H28.2672C29.1939 32.4996 29.387 32.1458 29.387 32.1458C29.39 32.1442 29.3916 32.1427 29.3947 32.1411L25.1211 24.5977H14.8858Z" fill="#4285F4"/>
<path d="M14.8857 24.5977H6.25977C6.30301 25.6229 6.74782 26.2221 6.74782 26.2221L7.07217 26.7851C7.09533 26.8181 7.10923 26.8369 7.10923 26.8369L7.81506 28.0761L9.3997 30.8343C9.44604 30.946 9.5001 31.0482 9.55725 31.1457C9.57887 31.1787 9.59894 31.2149 9.62211 31.2463C9.62829 31.2558 9.63447 31.2652 9.64064 31.2746C9.83679 31.5514 10.0561 31.7653 10.2754 31.9335C10.4685 32.0782 10.6106 32.1458 10.6106 32.1458L14.8857 24.5977Z" fill="#1967D2"/>
<path d="M25.1211 24.5977H33.747C33.7038 25.6229 33.259 26.2221 33.259 26.2221L32.9346 26.7851C32.9115 26.8181 32.8976 26.8369 32.8976 26.8369L32.1917 28.0761L30.6071 30.8343C30.5608 30.946 30.5067 31.0482 30.4496 31.1457C30.4279 31.1787 30.4079 31.2149 30.3847 31.2463C30.3785 31.2558 30.3723 31.2652 30.3662 31.2746C30.17 31.5514 29.9507 31.7653 29.7314 31.9335C29.5383 32.0782 29.3962 32.1458 29.3962 32.1458L25.1211 24.5977Z" fill="#EA4335"/>
</g>
<defs>
<filter id="filter0_d_6037_25270" x="-2" y="-1" width="44" height="44" filterUnits="userSpaceOnUse" color-interpolation-filters="sRGB">
<feFlood flood-opacity="0" result="BackgroundImageFix"/>
<feColorMatrix in="SourceAlpha" type="matrix" values="0 0 0 0 0 0 0 0 0 0 0 0 0 0 0 0 0 0 127 0" result="hardAlpha"/>
<feOffset dy="1"/>
<feGaussianBlur stdDeviation="1"/>
<feColorMatrix type="matrix" values="0 0 0 0 0.0627451 0 0 0 0 0.0941176 0 0 0 0 0.156863 0 0 0 0.05 0"/>
<feBlend mode="normal" in2="BackgroundImageFix" result="effect1_dropShadow_6037_25270"/>
<feBlend mode="normal" in="SourceGraphic" in2="effect1_dropShadow_6037_25270" result="shape"/>
</filter>
</defs>
</svg>
