<svg width="16" height="16" viewBox="0 0 16 16" fill="none" xmlns="http://www.w3.org/2000/svg">
<path d="M14.0006 8.13291C14.0006 7.63958 13.9597 7.27958 13.8713 6.90625H8.12305V9.13289H11.4972C11.4292 9.68624 11.0618 10.5196 10.2455 11.0795L10.234 11.1541L12.0515 12.5339L12.1775 12.5462C13.3339 11.4996 14.0006 9.95956 14.0006 8.13291" fill="#4285F4"/>
<path d="M8.1227 14.0009C9.77573 14.0009 11.1635 13.4675 12.1771 12.5475L10.2451 11.0808C9.72813 11.4342 9.03424 11.6808 8.1227 11.6808C6.50367 11.6808 5.12954 10.6342 4.6397 9.1875L4.5679 9.19348L2.67804 10.6268L2.65332 10.6942C3.66011 12.6542 5.72813 14.0009 8.1227 14.0009Z" fill="#34A853"/>
<path d="M4.6404 9.18656C4.51115 8.81323 4.43635 8.4132 4.43635 7.99989C4.43635 7.58653 4.51115 7.18654 4.6336 6.81321L4.63018 6.7337L2.71663 5.27734L2.65402 5.30653C2.23907 6.11987 2.00098 7.03322 2.00098 7.99989C2.00098 8.96655 2.23907 9.87985 2.65402 10.6932L4.6404 9.18656" fill="#FBBC05"/>
<path d="M8.12273 4.31998C9.27238 4.31998 10.0479 4.80665 10.4901 5.21334L12.218 3.56C11.1568 2.59334 9.77577 2 8.12273 2C5.72815 2 3.66011 3.34666 2.65332 5.30664L4.63291 6.81333C5.12955 5.36666 6.50369 4.31998 8.12273 4.31998" fill="#EB4335"/>
</svg>
